<svg width="27" height="27" viewBox="0 0 27 27" fill="none" xmlns="http://www.w3.org/2000/svg">
<g clip-path="url(#clip0_21_1278)">
<path d="M13.5 23.4C11.542 23.4 9.6279 22.8194 7.99986 21.7315C6.37181 20.6437 5.1029 19.0975 4.35359 17.2886C3.60429 15.4796 3.40824 13.489 3.79023 11.5686C4.17222 9.64819 5.11511 7.88417 6.49965 6.49964C7.88418 5.1151 9.6482 4.17221 11.5686 3.79022C13.489 3.40823 15.4796 3.60428 17.2886 4.35359C19.0976 5.10289 20.6437 6.37181 21.7315 7.99985C22.8194 9.62789 23.4 11.542 23.4 13.5" stroke="#3FCBFF" stroke-width="0.633333"/>
<path d="M13.5 0.900005C15.992 0.900005 18.4281 1.63899 20.5002 3.02349C22.5722 4.40799 24.1872 6.37585 25.1409 8.6782C26.0945 10.9805 26.3441 13.514 25.8579 15.9581C25.3717 18.4023 24.1717 20.6474 22.4095 22.4095C20.6474 24.1717 18.4023 25.3717 15.9581 25.8579C13.514 26.3441 10.9805 26.0945 8.67819 25.1409C6.37585 24.1872 4.40799 22.5722 3.02349 20.5002C1.63899 18.4281 0.900005 15.992 0.900005 13.5" stroke="#3FCBFF" stroke-width="0.633333"/>
<path d="M13.5029 8.66043C12.1513 8.66043 11.0517 9.67673 11.0517 10.9259C11.0517 12.1752 12.1513 13.1915 13.5029 13.1915C14.8545 13.1915 15.9541 12.1752 15.9541 10.9259C15.9541 9.67673 14.8545 8.66043 13.5029 8.66043ZM13.5029 13.7523C12.6861 13.7523 11.9182 13.4583 11.3406 12.9244C10.763 12.3906 10.4449 11.6809 10.4449 10.9259C10.4449 10.171 10.763 9.46129 11.3406 8.92747C11.9182 8.39364 12.6861 8.09965 13.5029 8.09965C14.3197 8.09965 15.0876 8.39364 15.6652 8.92747C16.2428 9.46129 16.5609 10.171 16.5609 10.9259C16.5609 11.6809 16.2428 12.3906 15.6652 12.9244C15.0876 13.4583 14.3197 13.7523 13.5029 13.7523Z" fill="black"/>
<path d="M8.70674 18.3392H18.2933V18.025C18.2933 16.0462 16.5514 14.4363 14.4103 14.4363H12.5897C10.4486 14.4363 8.70674 16.0462 8.70674 18.025V18.3392ZM18.9 18.9H8.10001V18.025C8.10001 17.465 8.21876 16.9215 8.45296 16.4097C8.6791 15.9156 9.00278 15.4718 9.41501 15.0908C9.82724 14.7099 10.3074 14.4107 10.842 14.2017C11.3957 13.9852 11.9837 13.8755 12.5897 13.8755H14.4103C15.0163 13.8755 15.6043 13.9852 16.1579 14.2017C16.6926 14.4107 17.1727 14.7099 17.585 15.0908C17.9972 15.4718 18.3208 15.9156 18.547 16.4097C18.7812 16.9215 18.9 17.465 18.9 18.025V18.9Z" fill="black"/>
</g>
<defs>
<clipPath id="clip0_21_1278">
<rect width="27" height="27" fill="white"/>
</clipPath>
</defs>
</svg>
