<svg width="375" height="64" viewBox="0 0 375 64" fill="none" xmlns="http://www.w3.org/2000/svg">
<mask id="mask0_22_114" style="mask-type:alpha" maskUnits="userSpaceOnUse" x="0" y="0" width="375" height="64">
<rect width="375" height="64" rx="8" fill="white"/>
</mask>
<g mask="url(#mask0_22_114)">
<path opacity="0.48" d="M202.987 131.924C202.987 131.924 207.764 98.2547 230.89 69.0879C253.002 41.1997 284.105 38.0285 286.79 37.804C286.929 37.7924 287.039 37.7887 287.178 37.7898C288.969 37.803 302.486 38.146 320.68 45.2691C338.944 52.4195 364.833 47.6052 368.167 46.9392C368.411 46.8905 368.641 46.8297 368.877 46.7502C372.247 45.6139 398.893 36.0147 407.082 14.0148" stroke="#C185FF" stroke-width="0.5"/>
<path fill-rule="evenodd" clip-rule="evenodd" d="M203.321 131.927C203.331 131.649 203.354 131.377 203.399 131.102C204.026 127.191 209.606 95.8673 231.269 68.4965C253.403 40.5296 284.534 37.347 287.222 37.1216C287.361 37.11 287.472 37.1063 287.611 37.1073C289.404 37.1205 302.934 37.4638 321.144 44.6055C339.424 51.7745 365.336 46.9454 368.674 46.2772C368.919 46.2283 369.149 46.1674 369.385 46.0876C372.759 44.9477 399.43 35.3199 407.628 13.2583C415.213 -7.15351 407.937 108.204 405.852 139.457C405.565 143.761 401.912 146.995 397.6 146.851L211.009 140.624C206.593 140.477 203.143 136.778 203.305 132.363L203.321 131.927Z" fill="url(#paint0_linear_22_114)" fill-opacity="0.62"/>
<path d="M135.72 68.5971C135.72 68.5971 174.93 42.8121 202.219 45.3312C229.509 47.8502 237.328 77.1044 262.075 79.5828C286.822 82.0612 317.826 5.25303 364.745 9.95188C411.663 14.6507 423.505 52.0203 423.505 52.0203" stroke="#3FCBFF" stroke-width="0.5"/>
<path fill-rule="evenodd" clip-rule="evenodd" d="M134.892 72.7374C135.155 70.3578 136.45 68.2234 138.505 66.9706C148.397 60.9381 179.196 43.516 201.802 45.599C229.082 48.1127 236.882 77.463 261.621 79.9372C286.36 82.4115 317.399 5.32441 364.302 10.0153C405.453 14.131 419.596 43.4963 422.446 50.6361C422.855 51.6597 422.96 52.7657 422.838 53.8658L414.915 125.612C414.43 130.003 410.472 133.206 406.075 132.767L139.259 106.081C134.862 105.641 131.691 101.725 132.176 97.3343L134.892 72.7374Z" fill="url(#paint1_linear_22_114)" fill-opacity="0.72"/>
<path opacity="0.48" d="M118.516 102.859C118.516 102.859 114.352 77.1418 88.4551 54.3819C63.4263 32.3848 26.5314 29.3529 24.0866 29.1744C23.9964 29.1678 23.9245 29.1643 23.8341 29.1625C22.2742 29.1306 6.1855 28.9402 -15.9266 33.9964C-38.0771 39.0614 -68.9819 34.4883 -71.931 34.0322C-72.0981 34.0064 -72.2184 33.9832 -72.3828 33.9439C-75.3588 33.2335 -107.186 25.2806 -116.012 8.04419" stroke="#3FCBFF" stroke-width="0.5"/>
<path fill-rule="evenodd" clip-rule="evenodd" d="M119.737 103.733C119.737 103.398 119.714 103.08 119.649 102.752C118.929 99.1318 113.462 75.5941 89.4526 54.5703C64.2335 32.4873 27.0565 29.4464 24.6032 29.268C24.5134 29.2615 24.4417 29.258 24.3516 29.2562C22.7895 29.2243 6.57745 29.0313 -15.707 34.1082C-38.0297 39.1938 -69.1773 34.5991 -72.1317 34.1438C-72.2982 34.1181 -72.4175 34.0951 -72.5814 34.0562C-75.5634 33.3472 -107.644 25.3647 -116.538 8.05855C-124.435 -7.30752 -121.158 76.3386 -119.965 102.404C-119.771 106.656 -116.264 109.97 -112.007 109.97H113.5C116.945 109.97 119.737 107.178 119.737 103.733Z" fill="url(#paint2_linear_22_114)" fill-opacity="0.72"/>
<path d="M-122.054 29.9511C-122.054 29.9511 -77.1564 15.5242 -50.129 24.3345C-23.1016 33.1448 -21.2412 61.9518 3.22871 70.1202C27.6986 78.2886 74.8337 14.9099 121.226 30.3963C167.618 45.8826 204.447 169.72 204.447 169.72" stroke="#C185FF" stroke-width="0.5"/>
<path fill-rule="evenodd" clip-rule="evenodd" d="M-123.245 32.9625C-122.391 30.5563 -120.448 28.6813 -117.958 27.9953C-106.454 24.8264 -72.2549 16.5983 -50.0435 23.8394C-23.0047 32.6543 -21.0342 61.1607 3.44678 69.3312C27.9278 77.5017 74.7773 14.9712 121.19 30.4615C157.639 42.6261 190.714 127.417 203.236 163.264C205.444 169.584 199.025 175.413 192.738 172.908L146.549 154.504L-125.689 63.645C-129.865 62.2511 -132.051 57.7754 -130.579 53.6289L-123.245 32.9625Z" fill="url(#paint3_linear_22_114)" fill-opacity="0.72"/>
</g>
<defs>
<linearGradient id="paint0_linear_22_114" x1="235.449" y1="4.37851" x2="232.106" y2="104.541" gradientUnits="userSpaceOnUse">
<stop stop-color="#AE71DF"/>
<stop offset="1" stop-color="#4B05AC" stop-opacity="0.01"/>
</linearGradient>
<linearGradient id="paint1_linear_22_114" x1="159.357" y1="-10.482" x2="148.87" y2="94.3708" gradientUnits="userSpaceOnUse">
<stop stop-color="#3FBEF4"/>
<stop offset="1" stop-color="#3FBEF4" stop-opacity="0.01"/>
</linearGradient>
<linearGradient id="paint2_linear_22_114" x1="91.4136" y1="5.67383" x2="91.4136" y2="85.5418" gradientUnits="userSpaceOnUse">
<stop stop-color="#3FBEF4"/>
<stop offset="1" stop-color="#3FBEF4" stop-opacity="0.01"/>
</linearGradient>
<linearGradient id="paint3_linear_22_114" x1="-85.6371" y1="-38.0019" x2="-119.115" y2="63.1334" gradientUnits="userSpaceOnUse">
<stop stop-color="#AE71DF"/>
<stop offset="1" stop-color="#AE71DF" stop-opacity="0.01"/>
</linearGradient>
</defs>
</svg>
